<svg width="44" height="40" viewBox="0 0 44 40" fill="none" xmlns="http://www.w3.org/2000/svg">
<path d="M10.1411 9.16257C0.906324 10.1701 -2.39933 21.6126 5.25219 26.3661C7.81735 27.9598 10.9935 28 14.0134 28C14.9349 28 15.9827 27.9309 16.4825 27.1568C16.69 26.8355 16.8065 26.4727 16.8695 26.1213C16.9564 25.6374 16.6061 25.2119 16.1555 25.0155C13.4717 23.8458 12.9778 21.1664 15.6934 18.2432C21.437 12.0606 22.6335 11.964 28.7121 18.533C31.9089 22.1525 30.025 23.7852 28.3366 24.7362C27.6935 25.0984 27.2063 25.7892 27.5096 26.4621C27.7757 27.0523 28.2986 27.5673 29.225 27.8447C29.7019 27.9874 30.2065 27.9898 30.7039 27.9694C34.91 27.7973 39.837 27.5775 41.9633 23.9445C44.2721 19.9998 42.7643 14.5038 37.0401 12.7369C37.3274 10.1286 35.4129 4.33247 27.8504 7.03732C26.5104 1.72422 14.5447 -4.26512 10.1411 9.16257Z" fill="#6338FA" stroke="#6338FA"/>
<path d="M17 33L28 33" stroke="#6338FA" stroke-width="2" stroke-linecap="round"/>
<path d="M17 36L28 36" stroke="#6338FA" stroke-width="2" stroke-linecap="round"/>
<path d="M17 39L28 39" stroke="#6338FA" stroke-width="2" stroke-linecap="round"/>
</svg>
