<svg width="20" height="20" viewBox="0 0 20 20" fill="none" xmlns="http://www.w3.org/2000/svg">
<path fill-rule="evenodd" clip-rule="evenodd" d="M11.7674 0.767877C10.7911 -0.208434 9.20816 -0.208432 8.23185 0.767878L0.767389 8.23234C-0.208922 9.20865 -0.208921 10.7916 0.76739 11.7679L8.23185 19.2323C9.20817 20.2087 10.7911 20.2087 11.7674 19.2323L19.2319 11.7679C20.2082 10.7916 20.2082 9.20865 19.2319 8.23234L11.7674 0.767877ZM8.99956 6.00011C8.99956 5.44782 9.44728 5.00011 9.99956 5.00011C10.5518 5.00011 10.9996 5.44782 10.9996 6.00011V10.0001C10.9996 10.5524 10.5518 11.0001 9.99956 11.0001C9.44728 11.0001 8.99956 10.5524 8.99956 10.0001V6.00011ZM10.9996 14.0001C10.9996 14.5524 10.5518 15.0001 9.99956 15.0001C9.44728 15.0001 8.99956 14.5524 8.99956 14.0001C8.99956 13.4478 9.44728 13.0001 9.99956 13.0001C10.5518 13.0001 10.9996 13.4478 10.9996 14.0001Z" fill="#D72C0D"/>
</svg>
