<svg viewBox="0 0 14 14" fill="currentColor" xmlns="http://www.w3.org/2000/svg">
  <path
    fill-rule="evenodd"
    clip-rule="evenodd"
    d="M5.01301 1.389C5.01301 0.622 5.63401 0 6.40201 0H7.59801C8.36501 0 8.98801 0.622 8.98801 1.389V2.049C8.98801 2.202 9.08901 2.379 9.29501 2.485C9.43601 2.559 9.57301 2.64 9.70601 2.726C9.90201 2.854 10.108 2.856 10.242 2.778L10.818 2.446C11.137 2.2619 11.516 2.212 11.8717 2.30726C12.2274 2.40252 12.5308 2.63515 12.715 2.954L13.314 3.991C13.4978 4.31013 13.5474 4.68913 13.4519 5.04479C13.3565 5.40046 13.1238 5.70372 12.805 5.888L12.184 6.247C12.053 6.322 11.952 6.496 11.959 6.724C11.9636 6.86633 11.9623 7.00878 11.955 7.151C11.943 7.384 12.045 7.563 12.178 7.64L12.805 8.002C13.47 8.386 13.697 9.235 13.314 9.899L12.715 10.936C12.5306 11.2546 12.2272 11.4871 11.8716 11.5823C11.5159 11.6776 11.137 11.6278 10.818 11.444L10.146 11.056C10.014 10.98 9.81401 10.98 9.62001 11.101C9.51406 11.1668 9.40565 11.2285 9.29501 11.286C9.08901 11.394 8.98701 11.57 8.98701 11.723V12.501C8.98701 12.8695 8.8407 13.2229 8.58025 13.4835C8.31979 13.7442 7.96649 13.8907 7.59801 13.891H6.40201C6.21944 13.8911 6.03863 13.8553 5.86993 13.7855C5.70123 13.7157 5.54794 13.6133 5.41884 13.4842C5.28974 13.3551 5.18736 13.2018 5.11755 13.0331C5.04775 12.8644 5.01188 12.6836 5.01201 12.501V11.723C5.01201 11.57 4.91001 11.393 4.70501 11.286C4.59439 11.2284 4.48598 11.1667 4.38001 11.101C4.18601 10.98 3.98501 10.981 3.85401 11.056L3.18201 11.444C2.86292 11.6281 2.48377 11.6781 2.12787 11.5828C1.77198 11.4876 1.46847 11.2549 1.28401 10.936L0.686014 9.899C0.502 9.57993 0.452248 9.20084 0.547701 8.8451C0.643153 8.48936 0.875993 8.18609 1.19501 8.002L1.82201 7.64C1.95501 7.563 2.05701 7.384 2.04501 7.15C2.03766 7.00812 2.03633 6.86599 2.04101 6.724C2.04801 6.496 1.94701 6.323 1.81601 6.247L1.19501 5.888C0.875993 5.70391 0.643153 5.40064 0.547701 5.0449C0.452248 4.68916 0.502 4.31007 0.686014 3.991L1.28401 2.954C1.37525 2.79599 1.49673 2.6575 1.6415 2.54645C1.78627 2.4354 1.95151 2.35396 2.12777 2.30678C2.30403 2.2596 2.48785 2.24762 2.66874 2.27151C2.84963 2.29539 3.02404 2.35469 3.18201 2.446L3.75801 2.778C3.89101 2.856 4.09801 2.854 4.29301 2.726C4.4263 2.63924 4.5638 2.55914 4.70501 2.486C4.91001 2.378 5.01301 2.202 5.01301 2.049V1.389ZM7.00001 9C7.53045 9 8.03915 8.78929 8.41423 8.41421C8.7893 8.03914 9.00001 7.53043 9.00001 7C9.00001 6.46957 8.7893 5.96086 8.41423 5.58579C8.03915 5.21071 7.53045 5 7.00001 5C6.46958 5 5.96087 5.21071 5.5858 5.58579C5.21073 5.96086 5.00001 6.46957 5.00001 7C5.00001 7.53043 5.21073 8.03914 5.5858 8.41421C5.96087 8.78929 6.46958 9 7.00001 9Z"
  />
</svg>
