<svg viewBox="0 0 12 13" fill="currentColor" xmlns="http://www.w3.org/2000/svg">
  <path
    d="M10 12.9999H8C7.73478 12.9999 7.48043 12.8946 7.29289 12.707C7.10536 12.5195 7 12.2652 7 11.9999V9.49994C7 9.36733 6.94732 9.24016 6.85355 9.14639C6.75979 9.05262 6.63261 8.99994 6.5 8.99994H5.5C5.36739 8.99994 5.24021 9.05262 5.14645 9.14639C5.05268 9.24016 5 9.36733 5 9.49994V11.9999C5 12.2652 4.89464 12.5195 4.70711 12.707C4.51957 12.8946 4.26522 12.9999 4 12.9999H2C1.46957 12.9999 0.960859 12.7892 0.585786 12.4142C0.210714 12.0391 2.15228e-08 11.5304 2.15228e-08 10.9999V6.74294C-4.7184e-05 6.34884 0.0775571 5.95859 0.228379 5.59449C0.379201 5.23039 0.600286 4.89957 0.879 4.62094L4.586 0.913942C4.96106 0.539 5.46967 0.328369 6 0.328369C6.53033 0.328369 7.03894 0.539 7.414 0.913942L11.121 4.62094C11.3997 4.89957 11.6208 5.23039 11.7716 5.59449C11.9224 5.95859 12 6.34884 12 6.74294V10.9999C12 11.5304 11.7893 12.0391 11.4142 12.4142C11.0391 12.7892 10.5304 12.9999 10 12.9999Z"
  />
</svg>